<?xml version="1.0" encoding="utf-8"?>
<!-- Generator: Adobe Illustrator 25.4.1, SVG Export Plug-In . SVG Version: 6.00 Build 0)  -->
<svg version="1.1" id="Layer_1" xmlns="http://www.w3.org/2000/svg" xmlns:xlink="http://www.w3.org/1999/xlink" x="0px" y="0px"
	 viewBox="0 0 800 800" style="enable-background:new 0 0 800 800;" xml:space="preserve">
<style type="text/css">
	.st0{fill:none;stroke:#F7931E;stroke-width:25;stroke-miterlimit:10;}
	.st1{fill:#FFFFFF;stroke:#F7931E;stroke-width:25;stroke-miterlimit:10;}
</style>
<g>
	<path class="st0" d="M242.22,118.22c128.9-8.84,223.64,70.98,228.14,150.04c3.94,69.12-62,121.64-71.44,128.94"/>
	<path class="st0" d="M124.98,234.62c107.21-72.11,229.16-50.35,272.6,15.86c37.97,57.89,7.13,136.34,2.6,147.39"/>
	<path class="st0" d="M80.67,392.76c56.79-116.05,173.29-158.18,244.01-122.56c61.83,31.15,74.34,114.51,75.95,126.34"/>
	<path class="st0" d="M121.28,550.36c-8.84-128.9,70.98-223.64,150.04-228.14c69.12-3.94,121.64,62,128.94,71.44"/>
	<path class="st0" d="M238.52,675.91c-72.11-107.21-50.35-229.16,15.86-272.6c57.89-37.97,136.34-7.13,147.39-2.6"/>
	<path class="st0" d="M397.94,719.25c-116.05-56.79-158.18-173.29-122.56-244.01c31.15-61.83,114.51-74.34,126.34-75.95"/>
	<path class="st0" d="M557.05,678.54c-128.9,8.84-223.64-70.98-228.14-150.04c-3.94-69.12,62-121.64,71.44-128.94"/>
	<path class="st0" d="M673.23,564.57c-107.21,72.11-229.16,50.35-272.6-15.86c-37.97-57.89-7.13-136.34-2.6-147.39"/>
	<path class="st0" d="M719.33,401.55c-56.79,116.05-173.29,158.18-244.01,122.56c-61.83-31.15-74.34-114.51-75.95-126.34"/>
	<path class="st0" d="M677.15,241.83c8.84,128.9-70.98,223.64-150.04,228.14c-69.12,3.94-121.64-62-128.94-71.44"/>
	<path class="st0" d="M562.34,124.38c72.11,107.21,50.35,229.16-15.86,272.6c-57.89,37.97-136.34,7.13-147.39,2.6"/>
	<path class="st0" d="M405.55,80.75c116.05,56.79,158.18,173.29,122.56,244.01c-31.15,61.83-114.51,74.34-126.34,75.95"/>
	<circle class="st1" cx="396.89" cy="401.63" r="258.5"/>
</g>
</svg>
