<?xml version="1.0" encoding="utf-8"?>
<!-- Generator: Adobe Illustrator 25.4.1, SVG Export Plug-In . SVG Version: 6.00 Build 0)  -->
<svg version="1.1" id="Layer_1" xmlns="http://www.w3.org/2000/svg" xmlns:xlink="http://www.w3.org/1999/xlink" x="0px" y="0px"
	 viewBox="0 0 800 800" style="enable-background:new 0 0 800 800;" xml:space="preserve">
<style type="text/css">
	.st0{fill:#F7931E;}
</style>
<path class="st0" d="M673.2,564.6l-53.6-31.8c6-10.2,11.4-20.9,16-32c32.6-22.5,62.3-55.7,83.7-99.3l-64-0.8c0-10-0.6-19.9-1.8-29.6
	c17.4-36.1,26.9-80.2,23.6-129.3l-55.9,31.4c-4.4-7.8-9.3-15.3-14.5-22.5c-2.5-40.7-16.4-84.6-44.4-126.4l-32.8,55.3
	c-7.3-4.3-14.7-8.3-22.4-12c-22.5-33.9-56.5-64.9-101.5-87l-0.7,62.5c-2.6-0.1-5.3-0.1-7.9-0.1c-7,0-14,0.3-20.9,0.8
	c-36.9-18.8-82.6-29.3-133.7-25.8l31.5,56.1c-9,4.9-17.6,10.3-25.9,16.1c-39.7,3.1-82.3,16.9-122.8,44.2l52.1,30.9
	c-6,9.7-11.4,19.8-16.2,30.4c-31.3,22.5-59.7,54.8-80.3,96.9l57.9,0.7c-0.1,2.7-0.1,5.4-0.1,8.2c0,10.1,0.6,20,1.7,29.8
	c-14.4,34-21.9,74.4-18.8,118.9l47.6-26.8c7.6,14.2,16.5,27.5,26.5,39.9c4.6,36.7,18.3,75.4,43.1,112.4l29.7-50
	c11.4,6.6,23.3,12.2,35.8,17c22.3,29.7,53.7,56.6,94,76.3l0.7-59.1c11.7-0.1,23.3-0.9,34.6-2.5c35,15.8,77.2,24.2,123.8,21L527,625
	c8.6-5,16.8-10.5,24.7-16.4C591,605.4,633.2,591.5,673.2,564.6z"/>
</svg>
